<?xml version="1.0" encoding="UTF-8"?>
<svg xmlns="http://www.w3.org/2000/svg" xmlns:xlink="http://www.w3.org/1999/xlink" width="30pt" height="30.000001pt" viewBox="0 0 30 30.000001" version="1.2">
<defs>
<filter id="alpha" filterUnits="objectBoundingBox" x="0%" y="0%" width="100%" height="100%">
  <feColorMatrix type="matrix" in="SourceGraphic" values="0 0 0 0 1 0 0 0 0 1 0 0 0 0 1 0 0 0 1 0"/>
</filter>
<mask id="mask0">
  <g filter="url(#alpha)">
<rect x="0" y="0" width="30" height="30.000001" style="fill:rgb(0%,0%,0%);fill-opacity:0.8;stroke:none;"/>
  </g>
</mask>
<clipPath id="clip2">
  <path d="M 0.46875 0.953125 L 3.371094 0.953125 L 3.371094 3.855469 L 0.46875 3.855469 Z M 0.46875 0.953125 "/>
</clipPath>
<clipPath id="clip1">
  <rect x="0" y="0" width="4" height="5"/>
</clipPath>
<g id="surface5" clip-path="url(#clip1)">
<g clip-path="url(#clip2)" clip-rule="nonzero">
<path style=" stroke:none;fill-rule:nonzero;fill:rgb(100%,34.118652%,34.118652%);fill-opacity:1;" d="M 1.921875 3.855469 C 1.703125 3.855469 1.484375 3.710938 1.484375 3.429688 L 1.484375 2.839844 L 0.894531 2.839844 C 0.617188 2.839844 0.46875 2.621094 0.46875 2.40625 C 0.46875 2.1875 0.617188 1.96875 0.894531 1.96875 L 1.484375 1.96875 L 1.484375 1.378906 C 1.484375 1.101562 1.703125 0.953125 1.921875 0.953125 C 2.136719 0.953125 2.359375 1.101562 2.359375 1.378906 L 2.359375 1.96875 L 2.945312 1.96875 C 3.226562 1.96875 3.371094 2.1875 3.371094 2.40625 C 3.371094 2.621094 3.226562 2.839844 2.945312 2.839844 L 2.359375 2.839844 L 2.359375 3.429688 C 2.359375 3.710938 2.136719 3.855469 1.921875 3.855469 Z M 0.894531 2.214844 C 0.722656 2.214844 0.71875 2.386719 0.71875 2.40625 C 0.71875 2.425781 0.722656 2.59375 0.894531 2.59375 L 1.734375 2.59375 L 1.734375 3.429688 C 1.734375 3.601562 1.902344 3.609375 1.921875 3.609375 C 1.941406 3.609375 2.109375 3.601562 2.109375 3.429688 L 2.109375 2.59375 L 2.945312 2.59375 C 3.121094 2.59375 3.125 2.425781 3.125 2.40625 C 3.125 2.386719 3.121094 2.214844 2.945312 2.214844 L 2.109375 2.214844 L 2.109375 1.378906 C 2.109375 1.207031 1.941406 1.203125 1.921875 1.203125 C 1.902344 1.203125 1.734375 1.207031 1.734375 1.378906 L 1.734375 2.214844 Z M 0.894531 2.214844 "/>
</g>
</g>
<mask id="mask1">
  <g filter="url(#alpha)">
<rect x="0" y="0" width="30" height="30.000001" style="fill:rgb(0%,0%,0%);fill-opacity:0.8;stroke:none;"/>
  </g>
</mask>
<clipPath id="clip4">
  <path d="M 0.125 0.96875 L 3.027344 0.96875 L 3.027344 3.871094 L 0.125 3.871094 Z M 0.125 0.96875 "/>
</clipPath>
<clipPath id="clip3">
  <rect x="0" y="0" width="4" height="4"/>
</clipPath>
<g id="surface8" clip-path="url(#clip3)">
<g clip-path="url(#clip4)" clip-rule="nonzero">
<path style=" stroke:none;fill-rule:nonzero;fill:rgb(32.159424%,44.309998%,100%);fill-opacity:1;" d="M 1.578125 3.871094 C 1.359375 3.871094 1.140625 3.722656 1.140625 3.445312 L 1.140625 2.855469 L 0.550781 2.855469 C 0.273438 2.855469 0.125 2.636719 0.125 2.417969 C 0.125 2.203125 0.273438 1.980469 0.550781 1.980469 L 1.140625 1.980469 L 1.140625 1.394531 C 1.140625 1.113281 1.359375 0.96875 1.578125 0.96875 C 1.792969 0.96875 2.015625 1.113281 2.015625 1.394531 L 2.015625 1.980469 L 2.601562 1.980469 C 2.882812 1.980469 3.027344 2.203125 3.027344 2.417969 C 3.027344 2.636719 2.882812 2.855469 2.601562 2.855469 L 2.015625 2.855469 L 2.015625 3.445312 C 2.015625 3.722656 1.792969 3.871094 1.578125 3.871094 Z M 0.550781 2.230469 C 0.378906 2.230469 0.375 2.398438 0.375 2.417969 C 0.375 2.4375 0.378906 2.605469 0.550781 2.605469 L 1.390625 2.605469 L 1.390625 3.445312 C 1.390625 3.617188 1.558594 3.621094 1.578125 3.621094 C 1.597656 3.621094 1.765625 3.617188 1.765625 3.445312 L 1.765625 2.605469 L 2.601562 2.605469 C 2.777344 2.605469 2.78125 2.4375 2.78125 2.417969 C 2.78125 2.398438 2.777344 2.230469 2.601562 2.230469 L 1.765625 2.230469 L 1.765625 1.394531 C 1.765625 1.21875 1.597656 1.214844 1.578125 1.214844 C 1.558594 1.214844 1.390625 1.21875 1.390625 1.394531 L 1.390625 2.230469 Z M 0.550781 2.230469 "/>
</g>
</g>
<mask id="mask2">
  <g filter="url(#alpha)">
<rect x="0" y="0" width="30" height="30.000001" style="fill:rgb(0%,0%,0%);fill-opacity:0.8;stroke:none;"/>
  </g>
</mask>
<clipPath id="clip6">
  <path d="M 0.34375 0.402344 L 3.246094 0.402344 L 3.246094 3.308594 L 0.34375 3.308594 Z M 0.34375 0.402344 "/>
</clipPath>
<clipPath id="clip5">
  <rect x="0" y="0" width="4" height="4"/>
</clipPath>
<g id="surface11" clip-path="url(#clip5)">
<g clip-path="url(#clip6)" clip-rule="nonzero">
<path style=" stroke:none;fill-rule:nonzero;fill:rgb(100%,83.139038%,23.919678%);fill-opacity:1;" d="M 1.796875 3.308594 C 1.578125 3.308594 1.359375 3.160156 1.359375 2.878906 L 1.359375 2.292969 L 0.769531 2.292969 C 0.488281 2.292969 0.34375 2.074219 0.34375 1.855469 C 0.34375 1.636719 0.488281 1.417969 0.769531 1.417969 L 1.359375 1.417969 L 1.359375 0.832031 C 1.359375 0.550781 1.578125 0.402344 1.796875 0.402344 C 2.011719 0.402344 2.230469 0.550781 2.230469 0.832031 L 2.230469 1.417969 L 2.820312 1.417969 C 3.101562 1.417969 3.246094 1.636719 3.246094 1.855469 C 3.246094 2.074219 3.101562 2.292969 2.820312 2.292969 L 2.230469 2.292969 L 2.230469 2.878906 C 2.230469 3.160156 2.011719 3.308594 1.796875 3.308594 Z M 0.769531 1.667969 C 0.597656 1.667969 0.59375 1.835938 0.59375 1.855469 C 0.59375 1.875 0.597656 2.042969 0.769531 2.042969 L 1.605469 2.042969 L 1.605469 2.878906 C 1.605469 3.054688 1.777344 3.058594 1.796875 3.058594 C 1.8125 3.058594 1.984375 3.054688 1.984375 2.878906 L 1.984375 2.042969 L 2.820312 2.042969 C 2.992188 2.042969 3 1.875 3 1.855469 C 3 1.835938 2.992188 1.667969 2.820312 1.667969 L 1.984375 1.667969 L 1.984375 0.832031 C 1.984375 0.65625 1.8125 0.652344 1.796875 0.652344 C 1.777344 0.652344 1.605469 0.65625 1.605469 0.832031 L 1.605469 1.667969 Z M 0.769531 1.667969 "/>
</g>
</g>
<mask id="mask3">
  <g filter="url(#alpha)">
<rect x="0" y="0" width="30" height="30.000001" style="fill:rgb(0%,0%,0%);fill-opacity:0.8;stroke:none;"/>
  </g>
</mask>
<clipPath id="clip8">
  <path d="M 0.253906 0.839844 L 3.15625 0.839844 L 3.15625 3.746094 L 0.253906 3.746094 Z M 0.253906 0.839844 "/>
</clipPath>
<clipPath id="clip7">
  <rect x="0" y="0" width="4" height="4"/>
</clipPath>
<g id="surface14" clip-path="url(#clip7)">
<g clip-path="url(#clip8)" clip-rule="nonzero">
<path style=" stroke:none;fill-rule:nonzero;fill:rgb(32.159424%,44.309998%,100%);fill-opacity:1;" d="M 1.703125 3.746094 C 1.488281 3.746094 1.265625 3.597656 1.265625 3.316406 L 1.265625 2.730469 L 0.679688 2.730469 C 0.398438 2.730469 0.253906 2.507812 0.253906 2.292969 C 0.253906 2.074219 0.398438 1.855469 0.679688 1.855469 L 1.265625 1.855469 L 1.265625 1.269531 C 1.265625 0.988281 1.488281 0.839844 1.703125 0.839844 C 1.921875 0.839844 2.140625 0.988281 2.140625 1.269531 L 2.140625 1.855469 L 2.730469 1.855469 C 3.007812 1.855469 3.15625 2.074219 3.15625 2.292969 C 3.15625 2.507812 3.007812 2.730469 2.730469 2.730469 L 2.140625 2.730469 L 2.140625 3.316406 C 2.140625 3.597656 1.921875 3.746094 1.703125 3.746094 Z M 0.679688 2.105469 C 0.503906 2.105469 0.5 2.273438 0.5 2.292969 C 0.5 2.3125 0.503906 2.480469 0.679688 2.480469 L 1.515625 2.480469 L 1.515625 3.316406 C 1.515625 3.492188 1.683594 3.496094 1.703125 3.496094 C 1.722656 3.496094 1.890625 3.492188 1.890625 3.316406 L 1.890625 2.480469 L 2.730469 2.480469 C 2.902344 2.480469 2.90625 2.3125 2.90625 2.292969 C 2.90625 2.273438 2.902344 2.105469 2.730469 2.105469 L 1.890625 2.105469 L 1.890625 1.269531 C 1.890625 1.09375 1.722656 1.089844 1.703125 1.089844 C 1.683594 1.089844 1.515625 1.09375 1.515625 1.269531 L 1.515625 2.105469 Z M 0.679688 2.105469 "/>
</g>
</g>
<mask id="mask4">
  <g filter="url(#alpha)">
<rect x="0" y="0" width="30" height="30.000001" style="fill:rgb(0%,0%,0%);fill-opacity:0.8;stroke:none;"/>
  </g>
</mask>
<clipPath id="clip10">
  <path d="M 0.6875 0.152344 L 3.59375 0.152344 L 3.59375 3.054688 L 0.6875 3.054688 Z M 0.6875 0.152344 "/>
</clipPath>
<clipPath id="clip9">
  <rect x="0" y="0" width="4" height="4"/>
</clipPath>
<g id="surface17" clip-path="url(#clip9)">
<g clip-path="url(#clip10)" clip-rule="nonzero">
<path style=" stroke:none;fill-rule:nonzero;fill:rgb(36.079407%,88.238525%,90.19928%);fill-opacity:1;" d="M 2.140625 3.054688 C 1.921875 3.054688 1.703125 2.910156 1.703125 2.628906 L 1.703125 2.039062 L 1.117188 2.039062 C 0.835938 2.039062 0.6875 1.820312 0.6875 1.605469 C 0.6875 1.386719 0.835938 1.167969 1.117188 1.167969 L 1.703125 1.167969 L 1.703125 0.578125 C 1.703125 0.296875 1.921875 0.152344 2.140625 0.152344 C 2.359375 0.152344 2.578125 0.296875 2.578125 0.578125 L 2.578125 1.167969 L 3.164062 1.167969 C 3.445312 1.167969 3.59375 1.386719 3.59375 1.605469 C 3.59375 1.820312 3.445312 2.039062 3.164062 2.039062 L 2.578125 2.039062 L 2.578125 2.628906 C 2.578125 2.910156 2.359375 3.054688 2.140625 3.054688 Z M 1.117188 1.414062 C 0.941406 1.414062 0.9375 1.585938 0.9375 1.605469 C 0.9375 1.621094 0.941406 1.792969 1.117188 1.792969 L 1.953125 1.792969 L 1.953125 2.628906 C 1.953125 2.800781 2.121094 2.808594 2.140625 2.808594 C 2.160156 2.808594 2.328125 2.800781 2.328125 2.628906 L 2.328125 1.792969 L 3.164062 1.792969 C 3.339844 1.792969 3.34375 1.621094 3.34375 1.605469 C 3.34375 1.585938 3.339844 1.414062 3.164062 1.414062 L 2.328125 1.414062 L 2.328125 0.578125 C 2.328125 0.40625 2.160156 0.398438 2.140625 0.398438 C 2.121094 0.398438 1.953125 0.40625 1.953125 0.578125 L 1.953125 1.414062 Z M 1.117188 1.414062 "/>
</g>
</g>
<mask id="mask5">
  <g filter="url(#alpha)">
<rect x="0" y="0" width="30" height="30.000001" style="fill:rgb(0%,0%,0%);fill-opacity:0.8;stroke:none;"/>
  </g>
</mask>
<clipPath id="clip12">
  <path d="M 0.5625 0.277344 L 3.464844 0.277344 L 3.464844 3.179688 L 0.5625 3.179688 Z M 0.5625 0.277344 "/>
</clipPath>
<clipPath id="clip11">
  <rect x="0" y="0" width="4" height="4"/>
</clipPath>
<g id="surface20" clip-path="url(#clip11)">
<g clip-path="url(#clip12)" clip-rule="nonzero">
<path style=" stroke:none;fill-rule:nonzero;fill:rgb(36.079407%,88.238525%,90.19928%);fill-opacity:1;" d="M 2.015625 3.179688 C 1.796875 3.179688 1.578125 3.035156 1.578125 2.753906 L 1.578125 2.167969 L 0.988281 2.167969 C 0.710938 2.167969 0.5625 1.945312 0.5625 1.730469 C 0.5625 1.511719 0.710938 1.292969 0.988281 1.292969 L 1.578125 1.292969 L 1.578125 0.703125 C 1.578125 0.425781 1.796875 0.277344 2.015625 0.277344 C 2.230469 0.277344 2.453125 0.425781 2.453125 0.703125 L 2.453125 1.292969 L 3.039062 1.292969 C 3.320312 1.292969 3.464844 1.511719 3.464844 1.730469 C 3.464844 1.945312 3.320312 2.167969 3.039062 2.167969 L 2.453125 2.167969 L 2.453125 2.753906 C 2.453125 3.035156 2.230469 3.179688 2.015625 3.179688 Z M 0.988281 1.542969 C 0.816406 1.542969 0.8125 1.710938 0.8125 1.730469 C 0.8125 1.75 0.816406 1.917969 0.988281 1.917969 L 1.824219 1.917969 L 1.824219 2.753906 C 1.824219 2.929688 1.996094 2.933594 2.015625 2.933594 C 2.035156 2.933594 2.203125 2.929688 2.203125 2.753906 L 2.203125 1.917969 L 3.039062 1.917969 C 3.210938 1.917969 3.21875 1.75 3.21875 1.730469 C 3.21875 1.710938 3.210938 1.542969 3.039062 1.542969 L 2.203125 1.542969 L 2.203125 0.703125 C 2.203125 0.53125 2.035156 0.527344 2.015625 0.527344 C 1.996094 0.527344 1.824219 0.53125 1.824219 0.703125 L 1.824219 1.542969 Z M 0.988281 1.542969 "/>
</g>
</g>
<mask id="mask6">
  <g filter="url(#alpha)">
<rect x="0" y="0" width="30" height="30.000001" style="fill:rgb(0%,0%,0%);fill-opacity:0.8;stroke:none;"/>
  </g>
</mask>
<clipPath id="clip14">
  <path d="M 0.527344 0.078125 L 3.429688 0.078125 L 3.429688 2.980469 L 0.527344 2.980469 Z M 0.527344 0.078125 "/>
</clipPath>
<clipPath id="clip13">
  <rect x="0" y="0" width="4" height="4"/>
</clipPath>
<g id="surface23" clip-path="url(#clip13)">
<g clip-path="url(#clip14)" clip-rule="nonzero">
<path style=" stroke:none;fill-rule:nonzero;fill:rgb(100%,34.118652%,34.118652%);fill-opacity:1;" d="M 1.980469 2.980469 C 1.761719 2.980469 1.542969 2.835938 1.542969 2.554688 L 1.542969 1.96875 L 0.953125 1.96875 C 0.675781 1.96875 0.527344 1.746094 0.527344 1.53125 C 0.527344 1.3125 0.675781 1.09375 0.953125 1.09375 L 1.542969 1.09375 L 1.542969 0.503906 C 1.542969 0.226562 1.761719 0.078125 1.980469 0.078125 C 2.195312 0.078125 2.417969 0.226562 2.417969 0.503906 L 2.417969 1.09375 L 3.003906 1.09375 C 3.285156 1.09375 3.429688 1.3125 3.429688 1.53125 C 3.429688 1.746094 3.285156 1.96875 3.003906 1.96875 L 2.417969 1.96875 L 2.417969 2.554688 C 2.417969 2.835938 2.195312 2.980469 1.980469 2.980469 Z M 0.953125 1.34375 C 0.78125 1.34375 0.777344 1.511719 0.777344 1.53125 C 0.777344 1.550781 0.78125 1.71875 0.953125 1.71875 L 1.792969 1.71875 L 1.792969 2.554688 C 1.792969 2.730469 1.960938 2.734375 1.980469 2.734375 C 2 2.734375 2.167969 2.730469 2.167969 2.554688 L 2.167969 1.71875 L 3.003906 1.71875 C 3.175781 1.71875 3.183594 1.550781 3.183594 1.53125 C 3.183594 1.511719 3.175781 1.34375 3.003906 1.34375 L 2.167969 1.34375 L 2.167969 0.503906 C 2.167969 0.332031 2 0.328125 1.980469 0.328125 C 1.960938 0.328125 1.792969 0.332031 1.792969 0.503906 L 1.792969 1.34375 Z M 0.953125 1.34375 "/>
</g>
</g>
<mask id="mask7">
  <g filter="url(#alpha)">
<rect x="0" y="0" width="30" height="30.000001" style="fill:rgb(0%,0%,0%);fill-opacity:0.8;stroke:none;"/>
  </g>
</mask>
<clipPath id="clip16">
  <path d="M 0.78125 1.207031 L 3.683594 1.207031 L 3.683594 4.109375 L 0.78125 4.109375 Z M 0.78125 1.207031 "/>
</clipPath>
<clipPath id="clip15">
  <rect x="0" y="0" width="4" height="5"/>
</clipPath>
<g id="surface26" clip-path="url(#clip15)">
<g clip-path="url(#clip16)" clip-rule="nonzero">
<path style=" stroke:none;fill-rule:nonzero;fill:rgb(100%,83.139038%,23.919678%);fill-opacity:1;" d="M 2.230469 4.109375 C 2.015625 4.109375 1.796875 3.960938 1.796875 3.683594 L 1.796875 3.09375 L 1.207031 3.09375 C 0.925781 3.09375 0.78125 2.875 0.78125 2.65625 C 0.78125 2.441406 0.925781 2.21875 1.207031 2.21875 L 1.796875 2.21875 L 1.796875 1.632812 C 1.796875 1.351562 2.015625 1.207031 2.230469 1.207031 C 2.449219 1.207031 2.667969 1.351562 2.667969 1.632812 L 2.667969 2.21875 L 3.257812 2.21875 C 3.539062 2.21875 3.683594 2.441406 3.683594 2.65625 C 3.683594 2.875 3.539062 3.09375 3.257812 3.09375 L 2.667969 3.09375 L 2.667969 3.683594 C 2.667969 3.960938 2.449219 4.109375 2.230469 4.109375 Z M 1.207031 2.46875 C 1.035156 2.46875 1.027344 2.636719 1.027344 2.65625 C 1.027344 2.675781 1.035156 2.84375 1.207031 2.84375 L 2.042969 2.84375 L 2.042969 3.683594 C 2.042969 3.855469 2.210938 3.859375 2.230469 3.859375 C 2.25 3.859375 2.421875 3.855469 2.421875 3.683594 L 2.421875 2.84375 L 3.257812 2.84375 C 3.429688 2.84375 3.433594 2.675781 3.433594 2.65625 C 3.433594 2.636719 3.429688 2.46875 3.257812 2.46875 L 2.421875 2.46875 L 2.421875 1.632812 C 2.421875 1.457031 2.25 1.453125 2.230469 1.453125 C 2.210938 1.453125 2.042969 1.457031 2.042969 1.632812 L 2.042969 2.46875 Z M 1.207031 2.46875 "/>
</g>
</g>
</defs>
<g id="surface1">
<path style=" stroke:none;fill-rule:nonzero;fill:rgb(29.019165%,20.779419%,45.489502%);fill-opacity:1;" d="M 15 3.039062 C 10.628906 3.039062 7.082031 6.585938 7.082031 10.957031 C 7.082031 13.832031 9.589844 16.113281 10.90625 18.449219 C 11.15625 18.890625 11.144531 20.476562 11.144531 20.476562 L 18.816406 20.476562 C 18.816406 20.476562 18.84375 18.890625 19.09375 18.449219 C 20.410156 16.113281 22.917969 13.832031 22.917969 10.957031 C 22.917969 6.585938 19.371094 3.039062 15 3.039062 Z M 15 4.1875 C 18.734375 4.1875 21.773438 7.222656 21.773438 10.957031 C 21.773438 12.613281 20.691406 14.117188 19.546875 15.707031 C 19.039062 16.414062 18.515625 17.140625 18.09375 17.886719 C 17.964844 18.113281 17.824219 18.464844 17.738281 19.332031 L 12.246094 19.332031 C 12.191406 18.644531 12.085938 18.207031 11.90625 17.886719 C 11.484375 17.140625 10.960938 16.410156 10.453125 15.707031 C 9.308594 14.117188 8.226562 12.613281 8.226562 10.957031 C 8.226562 7.222656 11.265625 4.1875 15 4.1875 "/>
<path style=" stroke:none;fill-rule:nonzero;fill:rgb(29.019165%,20.779419%,45.489502%);fill-opacity:1;" d="M 19.660156 21.078125 C 19.660156 21.40625 19.390625 21.675781 19.058594 21.675781 L 10.9375 21.675781 C 10.609375 21.675781 10.339844 21.40625 10.339844 21.078125 C 10.339844 20.746094 10.609375 20.476562 10.9375 20.476562 L 19.058594 20.476562 C 19.390625 20.476562 19.660156 20.746094 19.660156 21.078125 "/>
<path style=" stroke:none;fill-rule:nonzero;fill:rgb(29.019165%,20.779419%,45.489502%);fill-opacity:1;" d="M 19.660156 22.277344 C 19.660156 22.609375 19.390625 22.875 19.058594 22.875 L 10.9375 22.875 C 10.609375 22.875 10.339844 22.609375 10.339844 22.277344 C 10.339844 21.945312 10.609375 21.675781 10.9375 21.675781 L 19.058594 21.675781 C 19.390625 21.675781 19.660156 21.945312 19.660156 22.277344 "/>
<path style=" stroke:none;fill-rule:nonzero;fill:rgb(29.019165%,20.779419%,45.489502%);fill-opacity:1;" d="M 19.660156 23.476562 C 19.660156 23.808594 19.390625 24.074219 19.058594 24.074219 L 10.9375 24.074219 C 10.609375 24.074219 10.339844 23.808594 10.339844 23.476562 C 10.339844 23.144531 10.609375 22.875 10.9375 22.875 L 19.058594 22.875 C 19.390625 22.875 19.660156 23.144531 19.660156 23.476562 "/>
<path style=" stroke:none;fill-rule:nonzero;fill:rgb(29.019165%,20.779419%,45.489502%);fill-opacity:1;" d="M 11.570312 24.074219 C 11.582031 25.136719 13.113281 25.992188 15 25.992188 C 16.886719 25.992188 18.417969 25.136719 18.429688 24.074219 L 11.570312 24.074219 "/>
<use xlink:href="#surface5" transform="matrix(1,0,0,1,13,15)" mask="url(#mask0)"/>
<use xlink:href="#surface8" transform="matrix(1,0,0,1,12,4)" mask="url(#mask1)"/>
<use xlink:href="#surface11" transform="matrix(1,0,0,1,16,6)" mask="url(#mask2)"/>
<use xlink:href="#surface14" transform="matrix(1,0,0,1,9,7)" mask="url(#mask3)"/>
<use xlink:href="#surface17" transform="matrix(1,0,0,1,10,12)" mask="url(#mask4)"/>
<use xlink:href="#surface20" transform="matrix(1,0,0,1,13,9)" mask="url(#mask5)"/>
<use xlink:href="#surface23" transform="matrix(1,0,0,1,15,13)" mask="url(#mask6)"/>
<use xlink:href="#surface26" transform="matrix(1,0,0,1,17,9)" mask="url(#mask7)"/>
</g>
</svg>
